<svg width="24" height="25" viewBox="0 0 24 25" fill="none" xmlns="http://www.w3.org/2000/svg">
<path d="M17.2273 4.18725C17.3176 4.09178 17.3881 3.97947 17.4349 3.85674C17.4817 3.73401 17.5039 3.60327 17.5002 3.47196C17.4965 3.34066 17.4669 3.21138 17.4133 3.09149C17.3596 2.97161 17.2828 2.86347 17.1873 2.77325C17.0919 2.68303 16.9796 2.6125 16.8568 2.56569C16.7341 2.51887 16.6034 2.49669 16.4721 2.5004C16.3408 2.50411 16.2115 2.53365 16.0916 2.58733C15.9717 2.64101 15.8636 2.71778 15.7733 2.81325L7.27334 11.8132C7.09781 11.9989 7 12.2447 7 12.5002C7 12.7558 7.09781 13.0016 7.27334 13.1872L15.7733 22.1882C15.863 22.2858 15.9711 22.3646 16.0914 22.42C16.2117 22.4754 16.3419 22.5064 16.4743 22.5111C16.6067 22.5158 16.7387 22.4942 16.8626 22.4474C16.9866 22.4007 17.1 22.3298 17.1963 22.2388C17.2927 22.1479 17.3699 22.0387 17.4237 21.9176C17.4775 21.7965 17.5067 21.666 17.5095 21.5335C17.5124 21.4011 17.489 21.2694 17.4405 21.1461C17.3921 21.0228 17.3196 20.9103 17.2273 20.8153L9.37534 12.5002L17.2273 4.18725Z" fill="white"/>
</svg>
