<svg width="18" height="18" viewBox="0 0 18 18" fill="none" xmlns="http://www.w3.org/2000/svg">
<path d="M3 15.7503H15M4.2495 9.8905C3.92971 10.211 3.75008 10.6452 3.75 11.098V13.5003H6.16725C6.62025 13.5003 7.0545 13.3203 7.37475 12.9993L14.4998 5.8705C14.8194 5.54995 14.9989 5.11571 14.9989 4.663C14.9989 4.21029 14.8194 3.77605 14.4998 3.4555L13.7963 2.7505C13.6376 2.59177 13.4492 2.46586 13.2419 2.37998C13.0345 2.2941 12.8123 2.24993 12.5878 2.25C12.3634 2.25007 12.1412 2.29438 11.9339 2.38038C11.7266 2.46639 11.5383 2.59242 11.3798 2.75125L4.2495 9.8905Z" stroke="white" stroke-opacity="0.8" stroke-width="1.5" stroke-linecap="round" stroke-linejoin="round"/>
</svg>
