<svg width="24" height="24" viewBox="0 0 24 24" fill="none" xmlns="http://www.w3.org/2000/svg">
<path d="M3 9.625H21M17 2.625V6.625M7 2.625V6.625M17 4.625H7C5.93913 4.625 4.92172 5.04643 4.17157 5.79657C3.42143 6.54672 3 7.56413 3 8.625V17.375C3 18.4359 3.42143 19.4533 4.17157 20.2034C4.92172 20.9536 5.93913 21.375 7 21.375H17C18.0609 21.375 19.0783 20.9536 19.8284 20.2034C20.5786 19.4533 21 18.4359 21 17.375V8.625C21 7.56413 20.5786 6.54672 19.8284 5.79657C19.0783 5.04643 18.0609 4.625 17 4.625Z" stroke="#717886" stroke-width="1.5" stroke-linecap="round" stroke-linejoin="round"/>
<path d="M10.8612 12.778C11.368 11.926 11.6212 11.5 12 11.5C12.3788 11.5 12.632 11.926 13.1388 12.778L13.27 12.9985C13.414 13.2408 13.486 13.3619 13.598 13.4418C13.71 13.5216 13.85 13.5513 14.13 13.6105L14.3843 13.6645C15.3683 13.8734 15.8599 13.9776 15.9771 14.3305C16.0939 14.683 15.7587 15.0509 15.0879 15.7863L14.9143 15.9764C14.7239 16.1853 14.6283 16.2899 14.5855 16.4189C14.5427 16.5483 14.5571 16.6878 14.5859 16.9664L14.6123 17.2203C14.7135 18.2017 14.7643 18.6922 14.4579 18.91C14.1515 19.1279 13.6908 18.9292 12.77 18.5317L12.5312 18.4289C12.2696 18.3157 12.1388 18.2594 12 18.2594C11.8612 18.2594 11.7304 18.3157 11.4688 18.4289L11.2304 18.5317C10.3092 18.9292 9.84845 19.1279 9.54246 18.9104C9.23566 18.6922 9.28646 18.2017 9.38766 17.2203L9.41406 16.9668C9.44286 16.6878 9.45726 16.5483 9.41406 16.4193C9.37166 16.2899 9.27606 16.1853 9.08567 15.9768L8.91207 15.7863C8.24129 15.0513 7.9061 14.6834 8.02289 14.3305C8.13969 13.9776 8.63208 13.873 9.61606 13.6645L9.87045 13.6105C10.15 13.5513 10.2896 13.5216 10.402 13.4418C10.5144 13.3619 10.586 13.2408 10.73 12.9985L10.8612 12.778Z" stroke="#717886"/>
</svg>
