<svg width="24" height="24" viewBox="0 0 24 24" fill="none" xmlns="http://www.w3.org/2000/svg">
<path d="M9 16C9.85 16.63 10.885 17 12 17C13.115 17 14.15 16.63 15 16" fill="#717886"/>
<path d="M9 16C9.85 16.63 10.885 17 12 17C13.115 17 14.15 16.63 15 16" stroke="#717886" stroke-width="1.25" stroke-linecap="round"/>
<path d="M15 12C15.5523 12 16 11.3284 16 10.5C16 9.67157 15.5523 9 15 9C14.4477 9 14 9.67157 14 10.5C14 11.3284 14.4477 12 15 12Z" fill="#717886"/>
<path d="M9 12C9.55228 12 10 11.3284 10 10.5C10 9.67157 9.55228 9 9 9C8.44772 9 8 9.67157 8 10.5C8 11.3284 8.44772 12 9 12Z" fill="#717886"/>
<path d="M2.19995 10.0002C2.59334 8.07906 3.54224 6.31575 4.92887 4.92912C6.31551 3.54248 8.07882 2.59358 9.99995 2.2002M2.19995 14.0002C2.59334 15.9213 3.54224 17.6846 4.92887 19.0713C6.31551 20.4579 8.07882 21.4068 9.99995 21.8002M21.7999 10.0002C21.4066 8.07906 20.4577 6.31575 19.071 4.92912C17.6844 3.54248 15.9211 2.59358 14 2.2002M21.7999 14.0002C21.4066 15.9213 20.4577 17.6846 19.071 19.0713C17.6844 20.4579 15.9211 21.4068 14 21.8002" stroke="#717886" stroke-width="1.25" stroke-linecap="round"/>
</svg>
